<?xml version="1.0" encoding="UTF-8" standalone="no"?>
<!-- Generated by IcoMoon.io -->

<svg
   xmlns:dc="http://purl.org/dc/elements/1.1/"
   xmlns:cc="http://creativecommons.org/ns#"
   xmlns:rdf="http://www.w3.org/1999/02/22-rdf-syntax-ns#"
   xmlns:svg="http://www.w3.org/2000/svg"
   xmlns="http://www.w3.org/2000/svg"
   xmlns:sodipodi="http://sodipodi.sourceforge.net/DTD/sodipodi-0.dtd"
   xmlns:inkscape="http://www.inkscape.org/namespaces/inkscape"
   version="1.1"
   width="512"
   height="512"
   viewBox="0 0 512 512"
   id="svg2"
   inkscape:version="0.48.5 r10040"
   sodipodi:docname="target1.svg">
  <metadata
     id="metadata20">
    <rdf:RDF>
      <cc:Work
         rdf:about="">
        <dc:format>image/svg+xml</dc:format>
        <dc:type
           rdf:resource="http://purl.org/dc/dcmitype/StillImage" />
      </cc:Work>
    </rdf:RDF>
  </metadata>
  <defs
     id="defs18" />
  <sodipodi:namedview
     pagecolor="#ffffff"
     bordercolor="#666666"
     borderopacity="1"
     objecttolerance="10"
     gridtolerance="10"
     guidetolerance="10"
     inkscape:pageopacity="0"
     inkscape:pageshadow="2"
     inkscape:window-width="640"
     inkscape:window-height="480"
     id="namedview16"
     showgrid="false"
     inkscape:zoom="0.4609375"
     inkscape:cx="256"
     inkscape:cy="256"
     inkscape:window-x="0"
     inkscape:window-y="0"
     inkscape:window-maximized="0"
     inkscape:current-layer="svg2" />
  <g
     id="g4" />
  <path
     d="M384.645 256c0 70.942-57.702 128.655-128.655 128.655-70.942 0-128.655-57.712-128.655-128.655 0-70.912 57.723-128.635 128.655-128.635 70.963 0 128.655 57.713 128.655 128.635zM255.99 98.969c-86.558 0-157.020 70.42-157.020 157.031s70.462 157.041 157.020 157.041c86.579 0 157.061-70.441 157.061-157.041 0-86.61-70.482-157.030-157.061-157.030z"
     fill="#000000"
     id="path6" />
  <path
     d="M 270.192,156.00453 V 10.322 h -28.395 v 145.67547 c 4.485,-1.1341 9.196,-1.85677 14.203,-1.85677 5.007,0 9.707,0.72267 14.192,1.86454 z"
     id="path8"
     inkscape:connector-curvature="0"
     style="fill:#000000" />
  <path
     d="M 241.787,362.51424 V 501.678 h 28.395 V 362.51424 c -4.485,1.08409 -9.195,1.78119 -14.203,1.78119 -5.008,0 -9.708,-0.6971 -14.192,-1.78119 z"
     id="path10"
     inkscape:connector-curvature="0"
     style="fill:#000000" />
  <path
     d="M 155.98423,241.808 H 4.609 v 28.375 h 151.37523 c -1.15464,-4.454 -1.88539,-9.185 -1.88539,-14.213 0,-4.976 0.73075,-9.718 1.88539,-14.162 z"
     id="path12"
     inkscape:connector-curvature="0"
     style="fill:#000000" />
  <path
     d="M 507.392,241.808 H 351.65678 c 1.18779,4.444 1.93951,9.175 1.93951,14.172 0,5.018 -0.75172,9.758 -1.93951,14.213 H 507.392 v -28.386 z"
     id="path14"
     inkscape:connector-curvature="0"
     style="fill:#000000" />
</svg>
